<svg xmlns="http://www.w3.org/2000/svg" viewBox="0 0 512 512">
  
  <defs>
    <linearGradient id="bg" x1="0" y1="0" x2="0" y2="1">
      <stop offset="0" stop-color="#0f1825"></stop>
      <stop offset="1" stop-color="#0a0e15"></stop>
    </linearGradient>
  </defs>
  <rect width="512" height="512" rx="104" fill="url(#bg)"></rect>
  
  <circle cx="256" cy="240" r="168" fill="none" stroke="#c8ff3a" stroke-width="14" opacity="0.5"></circle>
  
  <line x1="256" y1="152" x2="256" y2="112" stroke="#c8ff3a" stroke-width="12" stroke-linecap="round"></line>
  <circle cx="256" cy="102" r="14" fill="#c8ff3a"></circle>
  
  <path d="M168,180 C116,180 116,254 182,264" fill="none" stroke="#c8ff3a" stroke-width="18" stroke-linecap="round"></path>
  <path d="M344,180 C396,180 396,254 330,264" fill="none" stroke="#c8ff3a" stroke-width="18" stroke-linecap="round"></path>
  
  <path d="M166,160 H346 V192 C346,272 307,320 256,320 C205,320 166,272 166,192 Z" fill="#c8ff3a"></path>
  
  <rect x="244" y="320" width="24" height="40" fill="#c8ff3a"></rect>
  <path d="M200,358 H312 L328,390 H184 Z" fill="#c8ff3a"></path>
  <rect x="176" y="390" width="160" height="22" rx="6" fill="#c8ff3a"></rect>
  
  <rect x="198" y="196" width="116" height="78" rx="20" fill="#0c1320"></rect>
  <circle cx="230" cy="232" r="14" fill="#c8ff3a"></circle>
  <circle cx="282" cy="232" r="14" fill="#c8ff3a"></circle>
  <rect x="222" y="256" width="68" height="9" rx="4" fill="#c8ff3a"></rect>
</svg>